# xmcd
# 
# Track frame offsets:
#     150
#     27605
#     43130
#     53057
#     67690
#     83100
#     102377
#     121040
#     133822
#     147592
# 
# Disc length: 2174
# 
# Revision: 4
# Processed by: cddbd v1.5.2PL0 Copyright (c) Steve Scherf et al.
# Submitted via: BonkEnc v1.0
# 
DISCID=8c087c0a
DTITLE=Various Artist - Songs For Mama
DYEAR=0
DGENRE=
TTITLE0=Jimmy Dean - I.O.U.
TTITLE1=Shenandoah - Mama Knows
TTITLE2=Merle Haggard - Mama Tried
TTITLE3=Melba Montogomery - No Charge
TTITLE4=C.W.McCall - Roses For Mama
TTITLE5=Hal Ketchum - Mama Knows The Highway
TTITLE6=Ed Bruce - Mammas Dont Let Your Babies Grow Up To Be Cowboys
TTITLE7=The Forester Sisters - Mama's Never Seen Those Eyes
TTITLE8=Leffty Frizzell - Mom And Dad's Waltz
TTITLE9=Bill Anderson - Mama Sang A Song
EXTD=
EXTT0=
EXTT1=
EXTT2=
EXTT3=
EXTT4=
EXTT5=
EXTT6=
EXTT7=
EXTT8=
EXTT9=
PLAYORDER=
